<?xml version="1.0" standalone="no"?>
<svg xmlns:xlink="http://www.w3.org/1999/xlink" id="wave" style="transform:rotate(180deg); transition: 0.3s" viewBox="0 0 1440 140" version="1.1" xmlns="http://www.w3.org/2000/svg"><defs><linearGradient id="sw-gradient-0" x1="0" x2="0" y1="1" y2="0"><stop stop-color="rgba(0, 76, 170, 1)" offset="0%"/><stop stop-color="rgba(255, 255, 255, 1)" offset="100%"/></linearGradient></defs><path style="transform:translate(0, 0px); opacity:1" fill="url(#sw-gradient-0)" d="M0,56L30,63C60,70,120,84,180,74.7C240,65,300,33,360,35C420,37,480,75,540,86.3C600,98,660,84,720,72.3C780,61,840,51,900,56C960,61,1020,79,1080,81.7C1140,84,1200,70,1260,58.3C1320,47,1380,37,1440,30.3C1500,23,1560,19,1620,35C1680,51,1740,89,1800,105C1860,121,1920,117,1980,100.3C2040,84,2100,56,2160,56C2220,56,2280,84,2340,100.3C2400,117,2460,121,2520,121.3C2580,121,2640,117,2700,109.7C2760,103,2820,93,2880,81.7C2940,70,3000,56,3060,49C3120,42,3180,42,3240,53.7C3300,65,3360,89,3420,100.3C3480,112,3540,112,3600,105C3660,98,3720,84,3780,67.7C3840,51,3900,33,3960,30.3C4020,28,4080,42,4140,44.3C4200,47,4260,37,4290,32.7L4320,28L4320,140L4290,140C4260,140,4200,140,4140,140C4080,140,4020,140,3960,140C3900,140,3840,140,3780,140C3720,140,3660,140,3600,140C3540,140,3480,140,3420,140C3360,140,3300,140,3240,140C3180,140,3120,140,3060,140C3000,140,2940,140,2880,140C2820,140,2760,140,2700,140C2640,140,2580,140,2520,140C2460,140,2400,140,2340,140C2280,140,2220,140,2160,140C2100,140,2040,140,1980,140C1920,140,1860,140,1800,140C1740,140,1680,140,1620,140C1560,140,1500,140,1440,140C1380,140,1320,140,1260,140C1200,140,1140,140,1080,140C1020,140,960,140,900,140C840,140,780,140,720,140C660,140,600,140,540,140C480,140,420,140,360,140C300,140,240,140,180,140C120,140,60,140,30,140L0,140Z"/></svg>